<?xml version="1.0" encoding="UTF-8" standalone="no"?>
<!-- Created with Inkscape (http://www.inkscape.org/) -->

<svg
   width="54.003204mm"
   height="14.132215mm"
   viewBox="0 0 54.003204 14.132215"
   version="1.1"
   id="svg1"
   xml:space="preserve"
   inkscape:version="1.3.2 (091e20ef0f, 2023-11-25)"
   sodipodi:docname="luminar.svg"
   xmlns:inkscape="http://www.inkscape.org/namespaces/inkscape"
   xmlns:sodipodi="http://sodipodi.sourceforge.net/DTD/sodipodi-0.dtd"
   xmlns="http://www.w3.org/2000/svg"
   xmlns:svg="http://www.w3.org/2000/svg"><sodipodi:namedview
     id="namedview1"
     pagecolor="#ffffff"
     bordercolor="#000000"
     borderopacity="0.25"
     inkscape:showpageshadow="2"
     inkscape:pageopacity="0.0"
     inkscape:pagecheckerboard="0"
     inkscape:deskcolor="#d1d1d1"
     inkscape:document-units="mm"
     inkscape:zoom="2.0756874"
     inkscape:cx="54.198912"
     inkscape:cy="19.511608"
     inkscape:window-width="2560"
     inkscape:window-height="1371"
     inkscape:window-x="0"
     inkscape:window-y="0"
     inkscape:window-maximized="1"
     inkscape:current-layer="layer1" /><defs
     id="defs1" /><g
     inkscape:label="Vrstva 1"
     inkscape:groupmode="layer"
     id="layer1"
     transform="translate(-142.74365,-62.961718)"><text
       xml:space="preserve"
       style="font-size:14.1111px;line-height:17.6389px;font-family:Cantarell;-inkscape-font-specification:Cantarell;text-align:center;text-anchor:middle;fill:#000000;stroke:#000000;stroke-width:0.352777;paint-order:stroke fill markers"
       x="90.509674"
       y="125.18785"
       id="text4"><tspan
         sodipodi:role="line"
         id="tspan4"
         style="font-style:normal;font-variant:normal;font-weight:bold;font-stretch:normal;font-size:14.1111px;line-height:17.6389px;font-family:Kanit;-inkscape-font-specification:'Kanit Bold';fill:#000000;stroke:none;stroke-width:0.352778"
         x="90.509674"
         y="125.18785">luminar</tspan></text><g
       id="g1"
       transform="matrix(0.52319307,0,0,0.52319307,61.853614,75.414535)"
       style="fill:#000000"><path
         d="M 28.06018,0 V 2.11046 A 2.3871162,2.3871162 0 0 0 26.86645,1.79007 2.3871162,2.3871162 0 0 0 24.47952,4.17752 2.3871162,2.3871162 0 0 0 26.86645,6.56446 2.3871162,2.3871162 0 0 0 29.25339,4.17752 V 0.59686 Z M 41.08626,0.59686 39.89253,1.19372 V 1.79007 2.9838 4.17752 a 2.3871162,2.3871162 0 0 0 2.38694,2.38694 V 5.37073 A 1.1935587,1.1935587 0 0 1 41.08574,4.17752 h 5.2e-4 V 2.9838 h 1.19321 V 1.79007 h -1.19321 z m -24.52047,1.19269 -0.001,0.001 0.004,0.002 a 1.939652,1.9396544 0 0 0 -1.34152,0.54106 1.939652,1.9396544 0 0 0 -0.0202,-0.0191 1.939652,1.9396544 0 0 0 -0.003,-0.003 1.939652,1.9396544 0 0 0 -0.0346,-0.0315 1.939652,1.9396544 0 0 0 -0.0284,-0.0243 1.939652,1.9396544 0 0 0 -0.007,-0.006 1.939652,1.9396544 0 0 0 -0.0269,-0.0222 1.939652,1.9396544 0 0 0 -0.009,-0.008 1.939652,1.9396544 0 0 0 -0.0253,-0.0196 1.939652,1.9396544 0 0 0 -0.0119,-0.009 1.939652,1.9396544 0 0 0 -0.0227,-0.0176 1.939652,1.9396544 0 0 0 -0.0145,-0.0103 1.939652,1.9396544 0 0 0 -0.0217,-0.0155 1.939652,1.9396544 0 0 0 -0.0165,-0.0119 1.939652,1.9396544 0 0 0 -0.007,-0.005 1.939652,1.9396544 0 0 0 -0.032,-0.0212 1.939652,1.9396544 0 0 0 -0.0176,-0.0114 1.939652,1.9396544 0 0 0 -0.0217,-0.0139 1.939652,1.9396544 0 0 0 -0.003,-0.002 1.939652,1.9396544 0 0 0 -0.0377,-0.0227 1.939652,1.9396544 0 0 0 -0.0134,-0.008 1.939652,1.9396544 0 0 0 -0.0274,-0.0155 1.939652,1.9396544 0 0 0 -0.0109,-0.006 1.939652,1.9396544 0 0 0 -0.03,-0.016 1.939652,1.9396544 0 0 0 -0.009,-0.005 1.939652,1.9396544 0 0 0 -0.008,-0.004 1.939652,1.9396544 0 0 0 -0.0243,-0.0124 1.939652,1.9396544 0 0 0 -0.007,-0.004 1.939652,1.9396544 0 0 0 -0.0165,-0.008 1.939652,1.9396544 0 0 0 -0.0191,-0.009 1.939652,1.9396544 0 0 0 -0.004,-0.002 1.939652,1.9396544 0 0 0 -0.0388,-0.0176 1.939652,1.9396544 0 0 0 -0.002,-5.2e-4 1.939652,1.9396544 0 0 0 -0.0109,-0.005 1.939652,1.9396544 0 0 0 -0.016,-0.007 1.939652,1.9396544 0 0 0 -0.7462,-0.14934 1.939652,1.9396544 0 0 0 -0.74569,0.15089 V 1.79005 h -1.19373 v 1.93993 2.83446 h 1.19373 V 3.72998 a 0.74615479,0.74615568 0 0 1 0.004,-0.078 0.74615479,0.74615568 0 0 1 0.0124,-0.077 0.74615479,0.74615568 0 0 1 0.0202,-0.0754 0.74615479,0.74615568 0 0 1 0.0279,-0.0729 0.74615479,0.74615568 0 0 1 0.0351,-0.0698 0.74615479,0.74615568 0 0 1 0.0429,-0.0656 0.74615479,0.74615568 0 0 1 0.0491,-0.0605 0.74615479,0.74615568 0 0 1 0.0553,-0.0553 0.74615479,0.74615568 0 0 1 0.0605,-0.0491 0.74615479,0.74615568 0 0 1 0.0656,-0.0429 0.74615479,0.74615568 0 0 1 0.0698,-0.0351 0.74615479,0.74615568 0 0 1 0.0729,-0.0279 0.74615479,0.74615568 0 0 1 0.0754,-0.0202 0.74615479,0.74615568 0 0 1 0.077,-0.0124 0.74615479,0.74615568 0 0 1 0.078,-0.004 0.74615479,0.74615568 0 0 1 0.0274,5.1e-4 0.74615479,0.74615568 0 0 1 0.0269,0.002 0.74615479,0.74615568 0 0 1 0.0274,0.003 0.74615479,0.74615568 0 0 1 0.0269,0.003 0.74615479,0.74615568 0 0 1 0.0269,0.005 0.74615479,0.74615568 0 0 1 0.0269,0.006 0.74615479,0.74615568 0 0 1 0.0263,0.006 0.74615479,0.74615568 0 0 1 0.0264,0.007 0.74615479,0.74615568 0 0 1 0.0258,0.009 0.74615479,0.74615568 0 0 1 0.0258,0.009 0.74615479,0.74615568 0 0 1 0.0248,0.01 0.74615479,0.74615568 0 0 1 0.0253,0.0119 0.74615479,0.74615568 0 0 1 0.0243,0.0119 0.74615479,0.74615568 0 0 1 0.0238,0.0129 0.74615479,0.74615568 0 0 1 0.0238,0.0139 0.74615479,0.74615568 0 0 1 0.0227,0.0145 0.74615479,0.74615568 0 0 1 0.0227,0.0155 0.74615479,0.74615568 0 0 1 0.0217,0.016 0.74615479,0.74615568 0 0 1 0.0212,0.0171 0.74615479,0.74615568 0 0 1 0.0207,0.0181 0.74615479,0.74615568 0 0 1 0.0201,0.0186 0.74615479,0.74615568 0 0 1 0.0191,0.0191 0.74615479,0.74615568 0 0 1 0.0186,0.0202 0.74615479,0.74615568 0 0 1 0.0176,0.0207 0.74615479,0.74615568 0 0 1 0.0171,0.0212 0.74615479,0.74615568 0 0 1 0.0165,0.0217 0.74615479,0.74615568 0 0 1 0.0155,0.0227 0.74615479,0.74615568 0 0 1 0.0145,0.0227 0.74615479,0.74615568 0 0 1 0.0134,0.0238 0.74615479,0.74615568 0 0 1 0.0129,0.0238 0.74615479,0.74615568 0 0 1 0.0124,0.0243 0.74615479,0.74615568 0 0 1 0.0109,0.0248 0.74615479,0.74615568 0 0 1 0.0103,0.0253 0.74615479,0.74615568 0 0 1 0.009,0.0258 0.74615479,0.74615568 0 0 1 0.008,0.0258 0.74615479,0.74615568 0 0 1 0.007,0.0263 0.74615479,0.74615568 0 0 1 0.007,0.0264 0.74615479,0.74615568 0 0 1 0.005,0.0269 0.74615479,0.74615568 0 0 1 0.005,0.0269 0.74615479,0.74615568 0 0 1 0.003,0.0269 0.74615479,0.74615568 0 0 1 0.003,0.0274 0.74615479,0.74615568 0 0 1 0.002,0.0269 0.74615479,0.74615568 0 0 1 5.2e-4,0.0274 v 2.83446 h 1.19373 V 3.73179 a 1.939652,1.9396544 0 0 0 0,-5.1e-4 1.939652,1.9396544 0 0 0 0,-5.2e-4 1.939652,1.9396544 0 0 0 0,-5.2e-4 1.939652,1.9396544 0 0 0 0,-5.1e-4 1.939652,1.9396544 0 0 0 0,-5.2e-4 1.939652,1.9396544 0 0 0 0,-5.2e-4 1.939652,1.9396544 0 0 0 0,-5.1e-4 1.939652,1.9396544 0 0 0 0,-5.2e-4 1.939652,1.9396544 0 0 0 0,-5.2e-4 0.74615479,0.74615568 0 0 1 0.004,-0.0734 0.74615479,0.74615568 0 0 1 0.0124,-0.077 0.74615479,0.74615568 0 0 1 0.0202,-0.0754 0.74615479,0.74615568 0 0 1 0.0279,-0.0729 0.74615479,0.74615568 0 0 1 0.0351,-0.0698 0.74615479,0.74615568 0 0 1 0.0429,-0.0656 0.74615479,0.74615568 0 0 1 0.0491,-0.0605 0.74615479,0.74615568 0 0 1 0.0553,-0.0553 0.74615479,0.74615568 0 0 1 0.0605,-0.0491 0.74615479,0.74615568 0 0 1 0.0656,-0.0429 0.74615479,0.74615568 0 0 1 0.0698,-0.0351 0.74615479,0.74615568 0 0 1 0.0729,-0.0279 0.74615479,0.74615568 0 0 1 0.0755,-0.0202 0.74615479,0.74615568 0 0 1 0.077,-0.0124 0.74615479,0.74615568 0 0 1 0.078,-0.004 0.74615479,0.74615568 0 0 1 0.0274,5.1e-4 0.74615479,0.74615568 0 0 1 0.0269,0.002 0.74615479,0.74615568 0 0 1 0.0279,0.003 0.74615479,0.74615568 0 0 1 0.0269,0.003 0.74615479,0.74615568 0 0 1 0.0269,0.005 0.74615479,0.74615568 0 0 1 0.0269,0.006 0.74615479,0.74615568 0 0 1 0.0263,0.006 0.74615479,0.74615568 0 0 1 0.0264,0.007 0.74615479,0.74615568 0 0 1 0.0258,0.009 0.74615479,0.74615568 0 0 1 0.0258,0.009 0.74615479,0.74615568 0 0 1 0.0248,0.0103 0.74615479,0.74615568 0 0 1 0.0253,0.0114 0.74615479,0.74615568 0 0 1 0.0243,0.0119 0.74615479,0.74615568 0 0 1 0.0238,0.0129 0.74615479,0.74615568 0 0 1 0.0238,0.0139 0.74615479,0.74615568 0 0 1 0.0227,0.0145 0.74615479,0.74615568 0 0 1 0.0227,0.0155 0.74615479,0.74615568 0 0 1 0.0217,0.016 0.74615479,0.74615568 0 0 1 0.0212,0.0171 0.74615479,0.74615568 0 0 1 0.0207,0.0181 0.74615479,0.74615568 0 0 1 0.0201,0.0186 0.74615479,0.74615568 0 0 1 0.0191,0.0191 0.74615479,0.74615568 0 0 1 0.0186,0.0202 0.74615479,0.74615568 0 0 1 0.0176,0.0207 0.74615479,0.74615568 0 0 1 0.0171,0.0212 0.74615479,0.74615568 0 0 1 0.0165,0.0217 0.74615479,0.74615568 0 0 1 0.0155,0.0227 0.74615479,0.74615568 0 0 1 0.0145,0.0227 0.74615479,0.74615568 0 0 1 0.0134,0.0238 0.74615479,0.74615568 0 0 1 0.0129,0.0238 0.74615479,0.74615568 0 0 1 0.0124,0.0243 0.74615479,0.74615568 0 0 1 0.0109,0.0248 0.74615479,0.74615568 0 0 1 0.0103,0.0253 0.74615479,0.74615568 0 0 1 0.009,0.0258 0.74615479,0.74615568 0 0 1 0.008,0.0258 0.74615479,0.74615568 0 0 1 0.007,0.0264 0.74615479,0.74615568 0 0 1 0.007,0.0264 0.74615479,0.74615568 0 0 1 0.005,0.0269 0.74615479,0.74615568 0 0 1 0.005,0.0269 0.74615479,0.74615568 0 0 1 0.003,0.0269 0.74615479,0.74615568 0 0 1 0.003,0.0274 0.74615479,0.74615568 0 0 1 0.002,0.0269 0.74615479,0.74615568 0 0 1 5.2e-4,0.0274 v 2.83446 h 1.19372 V 3.73345 a 1.939652,1.9396544 0 0 0 0,-5.1e-4 1.939652,1.9396544 0 0 0 0,-5.2e-4 1.939652,1.9396544 0 0 0 0,-5.2e-4 1.939652,1.9396544 0 0 0 0,-5.1e-4 1.939652,1.9396544 0 0 0 0,-5.2e-4 1.939652,1.9396544 0 0 0 0,-5.2e-4 1.939652,1.9396544 0 0 0 0,-5.1e-4 1.939652,1.9396544 0 0 0 0,-5.2e-4 1.939652,1.9396544 0 0 0 0,-5.2e-4 1.939652,1.9396544 0 0 0 0,-5.1e-4 1.939652,1.9396544 0 0 0 0,-5.2e-4 1.939652,1.9396544 0 0 0 0,-5.2e-4 1.939652,1.9396544 0 0 0 0,-5.1e-4 1.939652,1.9396544 0 0 0 0,-5.2e-4 1.939652,1.9396544 0 0 0 0,-5.2e-4 1.939652,1.9396544 0 0 0 0,-5.1e-4 1.939652,1.9396544 0 0 0 0,-5.2e-4 1.939652,1.9396544 0 0 0 0,-5.2e-4 1.939652,1.9396544 0 0 0 0,-5.1e-4 1.939652,1.9396544 0 0 0 0,-5.2e-4 1.939652,1.9396544 0 0 0 0,-5.2e-4 1.939652,1.9396544 0 0 0 0,-5.2e-4 1.939652,1.9396544 0 0 0 0,-5.1e-4 1.939652,1.9396544 0 0 0 0,-5.2e-4 1.939652,1.9396544 0 0 0 0,-5.2e-4 1.939652,1.9396544 0 0 0 0,-5.1e-4 1.939652,1.9396544 0 0 0 0,-5.2e-4 1.939652,1.9396544 0 0 0 0,-5.2e-4 1.939652,1.9396544 0 0 0 0,-5.1e-4 1.939652,1.9396544 0 0 0 0,-5.2e-4 1.939652,1.9396544 0 0 0 0,-5.2e-4 1.939652,1.9396544 0 0 0 0,-5.1e-4 1.939652,1.9396544 0 0 0 0,-5.2e-4 1.939652,1.9396544 0 0 0 0,-5.2e-4 1.939652,1.9396544 0 0 0 0,-5.1e-4 1.939652,1.9396544 0 0 0 0,-5.2e-4 1.939652,1.9396544 0 0 0 0,-5.2e-4 1.939652,1.9396544 0 0 0 0,-5.1e-4 1.939652,1.9396544 0 0 0 0,-5.2e-4 1.939652,1.9396544 0 0 0 0,-5.2e-4 1.939652,1.9396544 0 0 0 0,-5.1e-4 1.939652,1.9396544 0 0 0 0,-5.2e-4 1.939652,1.9396544 0 0 0 0,-5.2e-4 1.939652,1.9396544 0 0 0 0,-5.1e-4 1.939652,1.9396544 0 0 0 0,-5.2e-4 1.939652,1.9396544 0 0 0 0,-5.2e-4 1.939652,1.9396544 0 0 0 0,-5.1e-4 1.939652,1.9396544 0 0 0 0,-5.2e-4 1.939652,1.9396544 0 0 0 0,-5.2e-4 1.939652,1.9396544 0 0 0 0,-5.1e-4 1.939652,1.9396544 0 0 0 0,-5.2e-4 1.939652,1.9396544 0 0 0 0,-5.2e-4 1.939652,1.9396544 0 0 0 0,-5.1e-4 1.939652,1.9396544 0 0 0 0,-5.2e-4 1.939652,1.9396544 0 0 0 0,-5.2e-4 1.939652,1.9396544 0 0 0 0,-5.2e-4 1.939652,1.9396544 0 0 0 0,-5.1e-4 1.939652,1.9396544 0 0 0 0,-5.2e-4 1.939652,1.9396544 0 0 0 0,-5.2e-4 1.939652,1.9396544 0 0 0 0,-5.1e-4 1.939652,1.9396544 0 0 0 0,-5.2e-4 1.939652,1.9396544 0 0 0 0,-5.2e-4 1.939652,1.9396544 0 0 0 0,-5.1e-4 1.939652,1.9396544 0 0 0 0,-5.2e-4 1.939652,1.9396544 0 0 0 0,-5.2e-4 1.939652,1.9396544 0 0 0 -5.2e-4,-5.1e-4 1.939652,1.9396544 0 0 0 0,-5.2e-4 1.939652,1.9396544 0 0 0 0,-5.2e-4 1.939652,1.9396544 0 0 0 0,-5.1e-4 1.939652,1.9396544 0 0 0 0,-5.2e-4 1.939652,1.9396544 0 0 0 0,-5.2e-4 1.939652,1.9396544 0 0 0 0,-5.1e-4 1.939652,1.9396544 0 0 0 0,-5.2e-4 1.939652,1.9396544 0 0 0 0,-5.2e-4 1.939652,1.9396544 0 0 0 0,-5.1e-4 1.939652,1.9396544 0 0 0 0,-5.2e-4 1.939652,1.9396544 0 0 0 0,-5.2e-4 1.939652,1.9396544 0 0 0 0,-5.1e-4 1.939652,1.9396544 0 0 0 0,-5.2e-4 1.939652,1.9396544 0 0 0 0,-5.2e-4 1.939652,1.9396544 0 0 0 0,-5.1e-4 1.939652,1.9396544 0 0 0 0,-5.2e-4 1.939652,1.9396544 0 0 0 0,-5.2e-4 1.939652,1.9396544 0 0 0 0,-5.1e-4 1.939652,1.9396544 0 0 0 0,-5.2e-4 1.939652,1.9396544 0 0 0 0,-5.2e-4 1.939652,1.9396544 0 0 0 0,-5.1e-4 1.939652,1.9396544 0 0 0 0,-5.2e-4 1.939652,1.9396544 0 0 0 0,-5.2e-4 1.939652,1.9396544 0 0 0 0,-5.2e-4 1.939652,1.9396544 0 0 0 0,-5.1e-4 1.939652,1.9396544 0 0 0 -0.002,-0.0465 1.939652,1.9396544 0 0 0 -0.003,-0.0388 1.939652,1.9396544 0 0 0 -5.1e-4,-0.008 1.939652,1.9396544 0 0 0 -0.004,-0.0465 1.939652,1.9396544 0 0 0 -0.004,-0.0331 1.939652,1.9396544 0 0 0 -0.002,-0.0139 1.939652,1.9396544 0 0 0 -0.004,-0.03 1.939652,1.9396544 0 0 0 -0.002,-0.016 1.939652,1.9396544 0 0 0 -10e-4,-0.008 1.939652,1.9396544 0 0 0 -0.0243,-0.13075 1.939652,1.9396544 0 0 0 -0.005,-0.0191 1.939652,1.9396544 0 0 0 -0.006,-0.0264 1.939652,1.9396544 0 0 0 -0.004,-0.0165 1.939652,1.9396544 0 0 0 -0.0346,-0.11885 1.939652,1.9396544 0 0 0 -0.003,-0.008 1.939652,1.9396544 0 0 0 -0.0124,-0.0362 1.939652,1.9396544 0 0 0 -0.002,-0.006 1.939652,1.9396544 0 0 0 -0.014,-0.0382 1.939652,1.9396544 0 0 0 -0.001,-0.003 1.939652,1.9396544 0 0 0 -0.016,-0.0408 1.939652,1.9396544 0 0 0 -0.0181,-0.0429 1.939652,1.9396544 0 0 0 -0.0191,-0.0429 1.939652,1.9396544 0 0 0 -0.0165,-0.0357 1.939652,1.9396544 0 0 0 -0.004,-0.007 1.939652,1.9396544 0 0 0 -0.0124,-0.0243 1.939652,1.9396544 0 0 0 -0.009,-0.0176 1.939652,1.9396544 0 0 0 -0.016,-0.03 1.939652,1.9396544 0 0 0 -0.006,-0.0109 1.939652,1.9396544 0 0 0 -0.0155,-0.0274 1.939652,1.9396544 0 0 0 -0.008,-0.0134 1.939652,1.9396544 0 0 0 -0.002,-0.003 1.939652,1.9396544 0 0 0 -0.0222,-0.0377 1.939652,1.9396544 0 0 0 -0.0145,-0.0217 1.939652,1.9396544 0 0 0 -0.0372,-0.0568 1.939652,1.9396544 0 0 0 -0.0119,-0.0165 1.939652,1.9396544 0 0 0 -0.0155,-0.0217 1.939652,1.9396544 0 0 0 -0.01,-0.0139 1.939652,1.9396544 0 0 0 -0.0181,-0.0233 1.939652,1.9396544 0 0 0 -0.009,-0.0119 1.939652,1.9396544 0 0 0 -0.0196,-0.0253 1.939652,1.9396544 0 0 0 -0.008,-0.009 1.939652,1.9396544 0 0 0 -0.0222,-0.0269 1.939652,1.9396544 0 0 0 -0.0305,-0.0362 1.939652,1.9396544 0 0 0 -0.005,-0.005 1.939652,1.9396544 0 0 0 -0.0269,-0.03 1.939652,1.9396544 0 0 0 -0.003,-0.003 1.939652,1.9396544 0 0 0 -0.0294,-0.031 1.939652,1.9396544 0 0 0 -0.001,-10e-4 1.939652,1.9396544 0 0 0 -0.0326,-0.0326 1.939652,1.9396544 0 0 0 -0.031,-0.0294 1.939652,1.9396544 0 0 0 -0.003,-0.003 1.939652,1.9396544 0 0 0 -0.0346,-0.0315 1.939652,1.9396544 0 0 0 -0.0284,-0.0243 1.939652,1.9396544 0 0 0 -0.007,-0.006 1.939652,1.9396544 0 0 0 -0.0269,-0.0222 1.939652,1.9396544 0 0 0 -0.009,-0.008 1.939652,1.9396544 0 0 0 -0.0253,-0.0196 1.939652,1.9396544 0 0 0 -0.0119,-0.009 1.939652,1.9396544 0 0 0 -0.0232,-0.0176 1.939652,1.9396544 0 0 0 -0.014,-0.0103 1.939652,1.9396544 0 0 0 -0.0217,-0.0155 1.939652,1.9396544 0 0 0 -0.0165,-0.0119 1.939652,1.9396544 0 0 0 -0.007,-0.005 1.939652,1.9396544 0 0 0 -0.032,-0.0212 1.939652,1.9396544 0 0 0 -0.0176,-0.0114 1.939652,1.9396544 0 0 0 -0.0217,-0.014 1.939652,1.9396544 0 0 0 -0.003,-0.002 1.939652,1.9396544 0 0 0 -0.0377,-0.0227 1.939652,1.9396544 0 0 0 -0.0129,-0.008 1.939652,1.9396544 0 0 0 -0.0274,-0.0155 1.939652,1.9396544 0 0 0 -0.0114,-0.006 1.939652,1.9396544 0 0 0 -0.03,-0.016 1.939652,1.9396544 0 0 0 -0.009,-0.005 1.939652,1.9396544 0 0 0 -0.008,-0.004 1.939652,1.9396544 0 0 0 -0.0243,-0.0124 1.939652,1.9396544 0 0 0 -0.007,-0.004 1.939652,1.9396544 0 0 0 -0.0165,-0.008 1.939652,1.9396544 0 0 0 -0.0191,-0.009 1.939652,1.9396544 0 0 0 -0.004,-0.002 1.939652,1.9396544 0 0 0 -0.0387,-0.0176 1.939652,1.9396544 0 0 0 -0.002,-5.2e-4 1.939652,1.9396544 0 0 0 -0.0109,-0.005 1.939652,1.9396544 0 0 0 -0.016,-0.007 1.939652,1.9396544 0 0 0 -0.74621,-0.14935 z m 4.92993,5.2e-4 a 2.3871162,2.3871162 0 0 0 -2.38693,2.38745 2.3871162,2.3871162 0 0 0 2.38693,2.38694 2.3871162,2.3871162 0 0 0 2.38694,-2.38694 2.3871162,2.3871162 0 0 0 -2.38694,-2.38745 z m 8.35453,0 v 2.38745 a 2.3871162,2.3871162 0 0 0 2.38693,2.38694 2.3871162,2.3871162 0 0 0 2.38694,-2.38694 V 1.79059 h -1.19373 v 2.38693 h 5.2e-4 A 1.1935587,1.1935587 0 0 1 32.23718,5.37073 1.1935587,1.1935587 0 0 1 31.04346,4.17752 h 5.2e-4 V 1.79007 Z m 7.75767,0 a 2.3871162,2.3871162 0 0 0 -2.38694,2.38745 2.3871162,2.3871162 0 0 0 2.38694,2.38694 2.3871162,2.3871162 0 0 0 1.68672,-0.70074 L 38.45076,5.01985 A 1.1935587,1.1935587 0 0 1 37.60792,5.37073 1.1935587,1.1935587 0 0 1 36.41419,4.17752 1.1935587,1.1935587 0 0 1 37.60792,2.9838 1.1935587,1.1935587 0 0 1 38.45179,3.33313 l 0.84388,-0.84336 a 2.3871162,2.3871162 0 0 0 -1.68775,-0.6997 z m 7.65534,0 A 2.3871162,2.3871162 0 0 0 42.87633,4.17752 2.3871162,2.3871162 0 0 0 45.26326,6.56446 2.3871162,2.3871162 0 0 0 47.6502,4.17752 2.3871162,2.3871162 0 0 0 45.26326,1.79007 Z m 5.37073,0 A 2.3871162,2.3871162 0 0 0 48.24706,4.177 v 2.38746 h 1.19373 V 4.177 h -5.2e-4 A 1.1935587,1.1935587 0 0 1 50.63399,2.9838 Z M 21.49572,2.9838 A 1.1935587,1.1935587 0 0 1 22.68945,4.17752 1.1935587,1.1935587 0 0 1 21.49572,5.37073 1.1935587,1.1935587 0 0 1 20.302,4.17752 1.1935587,1.1935587 0 0 1 21.49572,2.9838 Z m 5.37073,0 A 1.1935587,1.1935587 0 0 1 28.06018,4.17752 1.1935587,1.1935587 0 0 1 26.86645,5.37073 1.1935587,1.1935587 0 0 1 25.67273,4.17752 1.1935587,1.1935587 0 0 1 26.86645,2.9838 Z m 18.39681,0 A 1.1935587,1.1935587 0 0 1 46.45699,4.17752 1.1935587,1.1935587 0 0 1 45.26326,5.37073 1.1935587,1.1935587 0 0 1 44.06954,4.17752 1.1935587,1.1935587 0 0 1 45.26326,2.9838 Z"
         id="path1"
         style="fill:#000000" /><path
         d="M 8.1469,0.80403 7.30823,1.6427 c 0.64698,0.647 1.04594,1.54205 1.04594,2.53428 0,0.99223 -0.39896,1.88738 -1.04594,2.53447 L 8.1468,7.55011 C 9.01169,6.6853 9.54793,5.49178 9.54793,4.17698 9.54793,2.86221 9.01176,1.66876 8.1469,0.80403 Z M 1.40092,0.80422 C 0.53615,1.66893 0,2.86227 0,4.17698 0,5.4917 0.53612,6.68522 1.40092,7.55001 L 2.2395,6.71144 C 1.59242,6.06435 1.19337,5.16921 1.19337,4.17698 c 0,-0.99222 0.39908,-1.8872 1.04613,-2.53419 v -10e-5 z m 3.37303,0.98601 c -1.31119,0 -2.38712,1.07555 -2.38712,2.38675 0,1.31119 1.07593,2.38712 2.38712,2.38712 1.31121,0 2.38685,-1.07593 2.38685,-2.38712 0,-1.3112 -1.07564,-2.38675 -2.38685,-2.38675 z m 0,1.19337 c 0.66621,0 1.19347,0.52717 1.19347,1.19338 0,0.66619 -0.52726,1.19375 -1.19347,1.19375 -0.66619,0 -1.19336,-0.52756 -1.19336,-1.19375 0,-0.66621 0.52717,-1.19338 1.19336,-1.19338 z"
         id="path2"
         style="fill:#000000" /></g><text
       xml:space="preserve"
       style="font-size:14.1111px;line-height:17.6389px;font-family:Cantarell;-inkscape-font-specification:Cantarell;text-align:center;text-anchor:middle;fill:#000000;stroke:#000000;stroke-width:0.352777;paint-order:stroke fill markers"
       x="87.463318"
       y="74.04599"
       id="text1"><tspan
         sodipodi:role="line"
         id="tspan1"
         style="font-style:normal;font-variant:normal;font-weight:bold;font-stretch:normal;font-size:14.1111px;line-height:17.6389px;font-family:Kanit;-inkscape-font-specification:'Kanit Bold';fill:#000000;stroke:none;stroke-width:0.352778"
         x="87.463318"
         y="74.04599">Luminar</tspan></text><g
       id="g4"
       transform="matrix(0.3864247,0,0,0.3864247,69.511823,114.40797)"
       style="fill:#000000"><path
         d="M 28.06018,0 V 2.11046 A 2.3871162,2.3871162 0 0 0 26.86645,1.79007 2.3871162,2.3871162 0 0 0 24.47952,4.17752 2.3871162,2.3871162 0 0 0 26.86645,6.56446 2.3871162,2.3871162 0 0 0 29.25339,4.17752 V 0.59686 Z M 41.08626,0.59686 39.89253,1.19372 V 1.79007 2.9838 4.17752 a 2.3871162,2.3871162 0 0 0 2.38694,2.38694 V 5.37073 A 1.1935587,1.1935587 0 0 1 41.08574,4.17752 h 5.2e-4 V 2.9838 h 1.19321 V 1.79007 h -1.19321 z m -24.52047,1.19269 -0.001,0.001 0.004,0.002 a 1.939652,1.9396544 0 0 0 -1.34152,0.54106 1.939652,1.9396544 0 0 0 -0.0202,-0.0191 1.939652,1.9396544 0 0 0 -0.003,-0.003 1.939652,1.9396544 0 0 0 -0.0346,-0.0315 1.939652,1.9396544 0 0 0 -0.0284,-0.0243 1.939652,1.9396544 0 0 0 -0.007,-0.006 1.939652,1.9396544 0 0 0 -0.0269,-0.0222 1.939652,1.9396544 0 0 0 -0.009,-0.008 1.939652,1.9396544 0 0 0 -0.0253,-0.0196 1.939652,1.9396544 0 0 0 -0.0119,-0.009 1.939652,1.9396544 0 0 0 -0.0227,-0.0176 1.939652,1.9396544 0 0 0 -0.0145,-0.0103 1.939652,1.9396544 0 0 0 -0.0217,-0.0155 1.939652,1.9396544 0 0 0 -0.0165,-0.0119 1.939652,1.9396544 0 0 0 -0.007,-0.005 1.939652,1.9396544 0 0 0 -0.032,-0.0212 1.939652,1.9396544 0 0 0 -0.0176,-0.0114 1.939652,1.9396544 0 0 0 -0.0217,-0.0139 1.939652,1.9396544 0 0 0 -0.003,-0.002 1.939652,1.9396544 0 0 0 -0.0377,-0.0227 1.939652,1.9396544 0 0 0 -0.0134,-0.008 1.939652,1.9396544 0 0 0 -0.0274,-0.0155 1.939652,1.9396544 0 0 0 -0.0109,-0.006 1.939652,1.9396544 0 0 0 -0.03,-0.016 1.939652,1.9396544 0 0 0 -0.009,-0.005 1.939652,1.9396544 0 0 0 -0.008,-0.004 1.939652,1.9396544 0 0 0 -0.0243,-0.0124 1.939652,1.9396544 0 0 0 -0.007,-0.004 1.939652,1.9396544 0 0 0 -0.0165,-0.008 1.939652,1.9396544 0 0 0 -0.0191,-0.009 1.939652,1.9396544 0 0 0 -0.004,-0.002 1.939652,1.9396544 0 0 0 -0.0388,-0.0176 1.939652,1.9396544 0 0 0 -0.002,-5.2e-4 1.939652,1.9396544 0 0 0 -0.0109,-0.005 1.939652,1.9396544 0 0 0 -0.016,-0.007 1.939652,1.9396544 0 0 0 -0.7462,-0.14934 1.939652,1.9396544 0 0 0 -0.74569,0.15089 V 1.79005 h -1.19373 v 1.93993 2.83446 h 1.19373 V 3.72998 a 0.74615479,0.74615568 0 0 1 0.004,-0.078 0.74615479,0.74615568 0 0 1 0.0124,-0.077 0.74615479,0.74615568 0 0 1 0.0202,-0.0754 0.74615479,0.74615568 0 0 1 0.0279,-0.0729 0.74615479,0.74615568 0 0 1 0.0351,-0.0698 0.74615479,0.74615568 0 0 1 0.0429,-0.0656 0.74615479,0.74615568 0 0 1 0.0491,-0.0605 0.74615479,0.74615568 0 0 1 0.0553,-0.0553 0.74615479,0.74615568 0 0 1 0.0605,-0.0491 0.74615479,0.74615568 0 0 1 0.0656,-0.0429 0.74615479,0.74615568 0 0 1 0.0698,-0.0351 0.74615479,0.74615568 0 0 1 0.0729,-0.0279 0.74615479,0.74615568 0 0 1 0.0754,-0.0202 0.74615479,0.74615568 0 0 1 0.077,-0.0124 0.74615479,0.74615568 0 0 1 0.078,-0.004 0.74615479,0.74615568 0 0 1 0.0274,5.1e-4 0.74615479,0.74615568 0 0 1 0.0269,0.002 0.74615479,0.74615568 0 0 1 0.0274,0.003 0.74615479,0.74615568 0 0 1 0.0269,0.003 0.74615479,0.74615568 0 0 1 0.0269,0.005 0.74615479,0.74615568 0 0 1 0.0269,0.006 0.74615479,0.74615568 0 0 1 0.0263,0.006 0.74615479,0.74615568 0 0 1 0.0264,0.007 0.74615479,0.74615568 0 0 1 0.0258,0.009 0.74615479,0.74615568 0 0 1 0.0258,0.009 0.74615479,0.74615568 0 0 1 0.0248,0.01 0.74615479,0.74615568 0 0 1 0.0253,0.0119 0.74615479,0.74615568 0 0 1 0.0243,0.0119 0.74615479,0.74615568 0 0 1 0.0238,0.0129 0.74615479,0.74615568 0 0 1 0.0238,0.0139 0.74615479,0.74615568 0 0 1 0.0227,0.0145 0.74615479,0.74615568 0 0 1 0.0227,0.0155 0.74615479,0.74615568 0 0 1 0.0217,0.016 0.74615479,0.74615568 0 0 1 0.0212,0.0171 0.74615479,0.74615568 0 0 1 0.0207,0.0181 0.74615479,0.74615568 0 0 1 0.0201,0.0186 0.74615479,0.74615568 0 0 1 0.0191,0.0191 0.74615479,0.74615568 0 0 1 0.0186,0.0202 0.74615479,0.74615568 0 0 1 0.0176,0.0207 0.74615479,0.74615568 0 0 1 0.0171,0.0212 0.74615479,0.74615568 0 0 1 0.0165,0.0217 0.74615479,0.74615568 0 0 1 0.0155,0.0227 0.74615479,0.74615568 0 0 1 0.0145,0.0227 0.74615479,0.74615568 0 0 1 0.0134,0.0238 0.74615479,0.74615568 0 0 1 0.0129,0.0238 0.74615479,0.74615568 0 0 1 0.0124,0.0243 0.74615479,0.74615568 0 0 1 0.0109,0.0248 0.74615479,0.74615568 0 0 1 0.0103,0.0253 0.74615479,0.74615568 0 0 1 0.009,0.0258 0.74615479,0.74615568 0 0 1 0.008,0.0258 0.74615479,0.74615568 0 0 1 0.007,0.0263 0.74615479,0.74615568 0 0 1 0.007,0.0264 0.74615479,0.74615568 0 0 1 0.005,0.0269 0.74615479,0.74615568 0 0 1 0.005,0.0269 0.74615479,0.74615568 0 0 1 0.003,0.0269 0.74615479,0.74615568 0 0 1 0.003,0.0274 0.74615479,0.74615568 0 0 1 0.002,0.0269 0.74615479,0.74615568 0 0 1 5.2e-4,0.0274 v 2.83446 h 1.19373 V 3.73179 a 1.939652,1.9396544 0 0 0 0,-5.1e-4 1.939652,1.9396544 0 0 0 0,-5.2e-4 1.939652,1.9396544 0 0 0 0,-5.2e-4 1.939652,1.9396544 0 0 0 0,-5.1e-4 1.939652,1.9396544 0 0 0 0,-5.2e-4 1.939652,1.9396544 0 0 0 0,-5.2e-4 1.939652,1.9396544 0 0 0 0,-5.1e-4 1.939652,1.9396544 0 0 0 0,-5.2e-4 1.939652,1.9396544 0 0 0 0,-5.2e-4 0.74615479,0.74615568 0 0 1 0.004,-0.0734 0.74615479,0.74615568 0 0 1 0.0124,-0.077 0.74615479,0.74615568 0 0 1 0.0202,-0.0754 0.74615479,0.74615568 0 0 1 0.0279,-0.0729 0.74615479,0.74615568 0 0 1 0.0351,-0.0698 0.74615479,0.74615568 0 0 1 0.0429,-0.0656 0.74615479,0.74615568 0 0 1 0.0491,-0.0605 0.74615479,0.74615568 0 0 1 0.0553,-0.0553 0.74615479,0.74615568 0 0 1 0.0605,-0.0491 0.74615479,0.74615568 0 0 1 0.0656,-0.0429 0.74615479,0.74615568 0 0 1 0.0698,-0.0351 0.74615479,0.74615568 0 0 1 0.0729,-0.0279 0.74615479,0.74615568 0 0 1 0.0755,-0.0202 0.74615479,0.74615568 0 0 1 0.077,-0.0124 0.74615479,0.74615568 0 0 1 0.078,-0.004 0.74615479,0.74615568 0 0 1 0.0274,5.1e-4 0.74615479,0.74615568 0 0 1 0.0269,0.002 0.74615479,0.74615568 0 0 1 0.0279,0.003 0.74615479,0.74615568 0 0 1 0.0269,0.003 0.74615479,0.74615568 0 0 1 0.0269,0.005 0.74615479,0.74615568 0 0 1 0.0269,0.006 0.74615479,0.74615568 0 0 1 0.0263,0.006 0.74615479,0.74615568 0 0 1 0.0264,0.007 0.74615479,0.74615568 0 0 1 0.0258,0.009 0.74615479,0.74615568 0 0 1 0.0258,0.009 0.74615479,0.74615568 0 0 1 0.0248,0.0103 0.74615479,0.74615568 0 0 1 0.0253,0.0114 0.74615479,0.74615568 0 0 1 0.0243,0.0119 0.74615479,0.74615568 0 0 1 0.0238,0.0129 0.74615479,0.74615568 0 0 1 0.0238,0.0139 0.74615479,0.74615568 0 0 1 0.0227,0.0145 0.74615479,0.74615568 0 0 1 0.0227,0.0155 0.74615479,0.74615568 0 0 1 0.0217,0.016 0.74615479,0.74615568 0 0 1 0.0212,0.0171 0.74615479,0.74615568 0 0 1 0.0207,0.0181 0.74615479,0.74615568 0 0 1 0.0201,0.0186 0.74615479,0.74615568 0 0 1 0.0191,0.0191 0.74615479,0.74615568 0 0 1 0.0186,0.0202 0.74615479,0.74615568 0 0 1 0.0176,0.0207 0.74615479,0.74615568 0 0 1 0.0171,0.0212 0.74615479,0.74615568 0 0 1 0.0165,0.0217 0.74615479,0.74615568 0 0 1 0.0155,0.0227 0.74615479,0.74615568 0 0 1 0.0145,0.0227 0.74615479,0.74615568 0 0 1 0.0134,0.0238 0.74615479,0.74615568 0 0 1 0.0129,0.0238 0.74615479,0.74615568 0 0 1 0.0124,0.0243 0.74615479,0.74615568 0 0 1 0.0109,0.0248 0.74615479,0.74615568 0 0 1 0.0103,0.0253 0.74615479,0.74615568 0 0 1 0.009,0.0258 0.74615479,0.74615568 0 0 1 0.008,0.0258 0.74615479,0.74615568 0 0 1 0.007,0.0264 0.74615479,0.74615568 0 0 1 0.007,0.0264 0.74615479,0.74615568 0 0 1 0.005,0.0269 0.74615479,0.74615568 0 0 1 0.005,0.0269 0.74615479,0.74615568 0 0 1 0.003,0.0269 0.74615479,0.74615568 0 0 1 0.003,0.0274 0.74615479,0.74615568 0 0 1 0.002,0.0269 0.74615479,0.74615568 0 0 1 5.2e-4,0.0274 v 2.83446 h 1.19372 V 3.73345 a 1.939652,1.9396544 0 0 0 0,-5.1e-4 1.939652,1.9396544 0 0 0 0,-5.2e-4 1.939652,1.9396544 0 0 0 0,-5.2e-4 1.939652,1.9396544 0 0 0 0,-5.1e-4 1.939652,1.9396544 0 0 0 0,-5.2e-4 1.939652,1.9396544 0 0 0 0,-5.2e-4 1.939652,1.9396544 0 0 0 0,-5.1e-4 1.939652,1.9396544 0 0 0 0,-5.2e-4 1.939652,1.9396544 0 0 0 0,-5.2e-4 1.939652,1.9396544 0 0 0 0,-5.1e-4 1.939652,1.9396544 0 0 0 0,-5.2e-4 1.939652,1.9396544 0 0 0 0,-5.2e-4 1.939652,1.9396544 0 0 0 0,-5.1e-4 1.939652,1.9396544 0 0 0 0,-5.2e-4 1.939652,1.9396544 0 0 0 0,-5.2e-4 1.939652,1.9396544 0 0 0 0,-5.1e-4 1.939652,1.9396544 0 0 0 0,-5.2e-4 1.939652,1.9396544 0 0 0 0,-5.2e-4 1.939652,1.9396544 0 0 0 0,-5.1e-4 1.939652,1.9396544 0 0 0 0,-5.2e-4 1.939652,1.9396544 0 0 0 0,-5.2e-4 1.939652,1.9396544 0 0 0 0,-5.2e-4 1.939652,1.9396544 0 0 0 0,-5.1e-4 1.939652,1.9396544 0 0 0 0,-5.2e-4 1.939652,1.9396544 0 0 0 0,-5.2e-4 1.939652,1.9396544 0 0 0 0,-5.1e-4 1.939652,1.9396544 0 0 0 0,-5.2e-4 1.939652,1.9396544 0 0 0 0,-5.2e-4 1.939652,1.9396544 0 0 0 0,-5.1e-4 1.939652,1.9396544 0 0 0 0,-5.2e-4 1.939652,1.9396544 0 0 0 0,-5.2e-4 1.939652,1.9396544 0 0 0 0,-5.1e-4 1.939652,1.9396544 0 0 0 0,-5.2e-4 1.939652,1.9396544 0 0 0 0,-5.2e-4 1.939652,1.9396544 0 0 0 0,-5.1e-4 1.939652,1.9396544 0 0 0 0,-5.2e-4 1.939652,1.9396544 0 0 0 0,-5.2e-4 1.939652,1.9396544 0 0 0 0,-5.1e-4 1.939652,1.9396544 0 0 0 0,-5.2e-4 1.939652,1.9396544 0 0 0 0,-5.2e-4 1.939652,1.9396544 0 0 0 0,-5.1e-4 1.939652,1.9396544 0 0 0 0,-5.2e-4 1.939652,1.9396544 0 0 0 0,-5.2e-4 1.939652,1.9396544 0 0 0 0,-5.1e-4 1.939652,1.9396544 0 0 0 0,-5.2e-4 1.939652,1.9396544 0 0 0 0,-5.2e-4 1.939652,1.9396544 0 0 0 0,-5.1e-4 1.939652,1.9396544 0 0 0 0,-5.2e-4 1.939652,1.9396544 0 0 0 0,-5.2e-4 1.939652,1.9396544 0 0 0 0,-5.1e-4 1.939652,1.9396544 0 0 0 0,-5.2e-4 1.939652,1.9396544 0 0 0 0,-5.2e-4 1.939652,1.9396544 0 0 0 0,-5.1e-4 1.939652,1.9396544 0 0 0 0,-5.2e-4 1.939652,1.9396544 0 0 0 0,-5.2e-4 1.939652,1.9396544 0 0 0 0,-5.2e-4 1.939652,1.9396544 0 0 0 0,-5.1e-4 1.939652,1.9396544 0 0 0 0,-5.2e-4 1.939652,1.9396544 0 0 0 0,-5.2e-4 1.939652,1.9396544 0 0 0 0,-5.1e-4 1.939652,1.9396544 0 0 0 0,-5.2e-4 1.939652,1.9396544 0 0 0 0,-5.2e-4 1.939652,1.9396544 0 0 0 0,-5.1e-4 1.939652,1.9396544 0 0 0 0,-5.2e-4 1.939652,1.9396544 0 0 0 0,-5.2e-4 1.939652,1.9396544 0 0 0 -5.2e-4,-5.1e-4 1.939652,1.9396544 0 0 0 0,-5.2e-4 1.939652,1.9396544 0 0 0 0,-5.2e-4 1.939652,1.9396544 0 0 0 0,-5.1e-4 1.939652,1.9396544 0 0 0 0,-5.2e-4 1.939652,1.9396544 0 0 0 0,-5.2e-4 1.939652,1.9396544 0 0 0 0,-5.1e-4 1.939652,1.9396544 0 0 0 0,-5.2e-4 1.939652,1.9396544 0 0 0 0,-5.2e-4 1.939652,1.9396544 0 0 0 0,-5.1e-4 1.939652,1.9396544 0 0 0 0,-5.2e-4 1.939652,1.9396544 0 0 0 0,-5.2e-4 1.939652,1.9396544 0 0 0 0,-5.1e-4 1.939652,1.9396544 0 0 0 0,-5.2e-4 1.939652,1.9396544 0 0 0 0,-5.2e-4 1.939652,1.9396544 0 0 0 0,-5.1e-4 1.939652,1.9396544 0 0 0 0,-5.2e-4 1.939652,1.9396544 0 0 0 0,-5.2e-4 1.939652,1.9396544 0 0 0 0,-5.1e-4 1.939652,1.9396544 0 0 0 0,-5.2e-4 1.939652,1.9396544 0 0 0 0,-5.2e-4 1.939652,1.9396544 0 0 0 0,-5.1e-4 1.939652,1.9396544 0 0 0 0,-5.2e-4 1.939652,1.9396544 0 0 0 0,-5.2e-4 1.939652,1.9396544 0 0 0 0,-5.2e-4 1.939652,1.9396544 0 0 0 0,-5.1e-4 1.939652,1.9396544 0 0 0 -0.002,-0.0465 1.939652,1.9396544 0 0 0 -0.003,-0.0388 1.939652,1.9396544 0 0 0 -5.1e-4,-0.008 1.939652,1.9396544 0 0 0 -0.004,-0.0465 1.939652,1.9396544 0 0 0 -0.004,-0.0331 1.939652,1.9396544 0 0 0 -0.002,-0.0139 1.939652,1.9396544 0 0 0 -0.004,-0.03 1.939652,1.9396544 0 0 0 -0.002,-0.016 1.939652,1.9396544 0 0 0 -10e-4,-0.008 1.939652,1.9396544 0 0 0 -0.0243,-0.13075 1.939652,1.9396544 0 0 0 -0.005,-0.0191 1.939652,1.9396544 0 0 0 -0.006,-0.0264 1.939652,1.9396544 0 0 0 -0.004,-0.0165 1.939652,1.9396544 0 0 0 -0.0346,-0.11885 1.939652,1.9396544 0 0 0 -0.003,-0.008 1.939652,1.9396544 0 0 0 -0.0124,-0.0362 1.939652,1.9396544 0 0 0 -0.002,-0.006 1.939652,1.9396544 0 0 0 -0.014,-0.0382 1.939652,1.9396544 0 0 0 -0.001,-0.003 1.939652,1.9396544 0 0 0 -0.016,-0.0408 1.939652,1.9396544 0 0 0 -0.0181,-0.0429 1.939652,1.9396544 0 0 0 -0.0191,-0.0429 1.939652,1.9396544 0 0 0 -0.0165,-0.0357 1.939652,1.9396544 0 0 0 -0.004,-0.007 1.939652,1.9396544 0 0 0 -0.0124,-0.0243 1.939652,1.9396544 0 0 0 -0.009,-0.0176 1.939652,1.9396544 0 0 0 -0.016,-0.03 1.939652,1.9396544 0 0 0 -0.006,-0.0109 1.939652,1.9396544 0 0 0 -0.0155,-0.0274 1.939652,1.9396544 0 0 0 -0.008,-0.0134 1.939652,1.9396544 0 0 0 -0.002,-0.003 1.939652,1.9396544 0 0 0 -0.0222,-0.0377 1.939652,1.9396544 0 0 0 -0.0145,-0.0217 1.939652,1.9396544 0 0 0 -0.0372,-0.0568 1.939652,1.9396544 0 0 0 -0.0119,-0.0165 1.939652,1.9396544 0 0 0 -0.0155,-0.0217 1.939652,1.9396544 0 0 0 -0.01,-0.0139 1.939652,1.9396544 0 0 0 -0.0181,-0.0233 1.939652,1.9396544 0 0 0 -0.009,-0.0119 1.939652,1.9396544 0 0 0 -0.0196,-0.0253 1.939652,1.9396544 0 0 0 -0.008,-0.009 1.939652,1.9396544 0 0 0 -0.0222,-0.0269 1.939652,1.9396544 0 0 0 -0.0305,-0.0362 1.939652,1.9396544 0 0 0 -0.005,-0.005 1.939652,1.9396544 0 0 0 -0.0269,-0.03 1.939652,1.9396544 0 0 0 -0.003,-0.003 1.939652,1.9396544 0 0 0 -0.0294,-0.031 1.939652,1.9396544 0 0 0 -0.001,-10e-4 1.939652,1.9396544 0 0 0 -0.0326,-0.0326 1.939652,1.9396544 0 0 0 -0.031,-0.0294 1.939652,1.9396544 0 0 0 -0.003,-0.003 1.939652,1.9396544 0 0 0 -0.0346,-0.0315 1.939652,1.9396544 0 0 0 -0.0284,-0.0243 1.939652,1.9396544 0 0 0 -0.007,-0.006 1.939652,1.9396544 0 0 0 -0.0269,-0.0222 1.939652,1.9396544 0 0 0 -0.009,-0.008 1.939652,1.9396544 0 0 0 -0.0253,-0.0196 1.939652,1.9396544 0 0 0 -0.0119,-0.009 1.939652,1.9396544 0 0 0 -0.0232,-0.0176 1.939652,1.9396544 0 0 0 -0.014,-0.0103 1.939652,1.9396544 0 0 0 -0.0217,-0.0155 1.939652,1.9396544 0 0 0 -0.0165,-0.0119 1.939652,1.9396544 0 0 0 -0.007,-0.005 1.939652,1.9396544 0 0 0 -0.032,-0.0212 1.939652,1.9396544 0 0 0 -0.0176,-0.0114 1.939652,1.9396544 0 0 0 -0.0217,-0.014 1.939652,1.9396544 0 0 0 -0.003,-0.002 1.939652,1.9396544 0 0 0 -0.0377,-0.0227 1.939652,1.9396544 0 0 0 -0.0129,-0.008 1.939652,1.9396544 0 0 0 -0.0274,-0.0155 1.939652,1.9396544 0 0 0 -0.0114,-0.006 1.939652,1.9396544 0 0 0 -0.03,-0.016 1.939652,1.9396544 0 0 0 -0.009,-0.005 1.939652,1.9396544 0 0 0 -0.008,-0.004 1.939652,1.9396544 0 0 0 -0.0243,-0.0124 1.939652,1.9396544 0 0 0 -0.007,-0.004 1.939652,1.9396544 0 0 0 -0.0165,-0.008 1.939652,1.9396544 0 0 0 -0.0191,-0.009 1.939652,1.9396544 0 0 0 -0.004,-0.002 1.939652,1.9396544 0 0 0 -0.0387,-0.0176 1.939652,1.9396544 0 0 0 -0.002,-5.2e-4 1.939652,1.9396544 0 0 0 -0.0109,-0.005 1.939652,1.9396544 0 0 0 -0.016,-0.007 1.939652,1.9396544 0 0 0 -0.74621,-0.14935 z m 4.92993,5.2e-4 a 2.3871162,2.3871162 0 0 0 -2.38693,2.38745 2.3871162,2.3871162 0 0 0 2.38693,2.38694 2.3871162,2.3871162 0 0 0 2.38694,-2.38694 2.3871162,2.3871162 0 0 0 -2.38694,-2.38745 z m 8.35453,0 v 2.38745 a 2.3871162,2.3871162 0 0 0 2.38693,2.38694 2.3871162,2.3871162 0 0 0 2.38694,-2.38694 V 1.79059 h -1.19373 v 2.38693 h 5.2e-4 A 1.1935587,1.1935587 0 0 1 32.23718,5.37073 1.1935587,1.1935587 0 0 1 31.04346,4.17752 h 5.2e-4 V 1.79007 Z m 7.75767,0 a 2.3871162,2.3871162 0 0 0 -2.38694,2.38745 2.3871162,2.3871162 0 0 0 2.38694,2.38694 2.3871162,2.3871162 0 0 0 1.68672,-0.70074 L 38.45076,5.01985 A 1.1935587,1.1935587 0 0 1 37.60792,5.37073 1.1935587,1.1935587 0 0 1 36.41419,4.17752 1.1935587,1.1935587 0 0 1 37.60792,2.9838 1.1935587,1.1935587 0 0 1 38.45179,3.33313 l 0.84388,-0.84336 a 2.3871162,2.3871162 0 0 0 -1.68775,-0.6997 z m 7.65534,0 A 2.3871162,2.3871162 0 0 0 42.87633,4.17752 2.3871162,2.3871162 0 0 0 45.26326,6.56446 2.3871162,2.3871162 0 0 0 47.6502,4.17752 2.3871162,2.3871162 0 0 0 45.26326,1.79007 Z m 5.37073,0 A 2.3871162,2.3871162 0 0 0 48.24706,4.177 v 2.38746 h 1.19373 V 4.177 h -5.2e-4 A 1.1935587,1.1935587 0 0 1 50.63399,2.9838 Z M 21.49572,2.9838 A 1.1935587,1.1935587 0 0 1 22.68945,4.17752 1.1935587,1.1935587 0 0 1 21.49572,5.37073 1.1935587,1.1935587 0 0 1 20.302,4.17752 1.1935587,1.1935587 0 0 1 21.49572,2.9838 Z m 5.37073,0 A 1.1935587,1.1935587 0 0 1 28.06018,4.17752 1.1935587,1.1935587 0 0 1 26.86645,5.37073 1.1935587,1.1935587 0 0 1 25.67273,4.17752 1.1935587,1.1935587 0 0 1 26.86645,2.9838 Z m 18.39681,0 A 1.1935587,1.1935587 0 0 1 46.45699,4.17752 1.1935587,1.1935587 0 0 1 45.26326,5.37073 1.1935587,1.1935587 0 0 1 44.06954,4.17752 1.1935587,1.1935587 0 0 1 45.26326,2.9838 Z"
         id="path3"
         style="fill:#000000" /><path
         d="M 8.1469,0.80403 7.30823,1.6427 c 0.64698,0.647 1.04594,1.54205 1.04594,2.53428 0,0.99223 -0.39896,1.88738 -1.04594,2.53447 L 8.1468,7.55011 C 9.01169,6.6853 9.54793,5.49178 9.54793,4.17698 9.54793,2.86221 9.01176,1.66876 8.1469,0.80403 Z M 1.40092,0.80422 C 0.53615,1.66893 0,2.86227 0,4.17698 0,5.4917 0.53612,6.68522 1.40092,7.55001 L 2.2395,6.71144 C 1.59242,6.06435 1.19337,5.16921 1.19337,4.17698 c 0,-0.99222 0.39908,-1.8872 1.04613,-2.53419 v -10e-5 z m 3.37303,0.98601 c -1.31119,0 -2.38712,1.07555 -2.38712,2.38675 0,1.31119 1.07593,2.38712 2.38712,2.38712 1.31121,0 2.38685,-1.07593 2.38685,-2.38712 0,-1.3112 -1.07564,-2.38675 -2.38685,-2.38675 z m 0,1.19337 c 0.66621,0 1.19347,0.52717 1.19347,1.19338 0,0.66619 -0.52726,1.19375 -1.19347,1.19375 -0.66619,0 -1.19336,-0.52756 -1.19336,-1.19375 0,-0.66621 0.52717,-1.19338 1.19336,-1.19338 z"
         id="path4"
         style="fill:#000000" /></g><path
       d="m 151.17894,73.657934 v 1.104178 a 1.2489227,1.2489227 0 0 0 -0.62455,-0.167626 1.2489227,1.2489227 0 0 0 -1.24882,1.249098 1.2489227,1.2489227 0 0 0 1.24882,1.24883 1.2489227,1.2489227 0 0 0 1.24883,-1.24883 v -1.873377 z m 6.81516,0.312273 -0.62455,0.312273 v 0.312006 0.624551 0.624547 a 1.2489227,1.2489227 0 0 0 1.24883,1.24883 v -0.624551 a 0.62446164,0.62446164 0 0 1 -0.62456,-0.624279 h 2.8e-4 v -0.624547 h 0.62428 v -0.624551 h -0.62428 z m -12.82894,0.624007 -5.3e-4,5.23e-4 0.002,0.001 a 1.0148125,1.0148137 0 0 0 -0.70188,0.283079 1.0148125,1.0148137 0 0 0 -0.0106,-0.01 1.0148125,1.0148137 0 0 0 -0.002,-0.0016 1.0148125,1.0148137 0 0 0 -0.0181,-0.01648 1.0148125,1.0148137 0 0 0 -0.0149,-0.01271 1.0148125,1.0148137 0 0 0 -0.004,-0.0031 1.0148125,1.0148137 0 0 0 -0.0141,-0.01161 1.0148125,1.0148137 0 0 0 -0.005,-0.0042 1.0148125,1.0148137 0 0 0 -0.0132,-0.01025 1.0148125,1.0148137 0 0 0 -0.006,-0.0047 1.0148125,1.0148137 0 0 0 -0.0119,-0.0092 1.0148125,1.0148137 0 0 0 -0.008,-0.0054 1.0148125,1.0148137 0 0 0 -0.0114,-0.0081 1.0148125,1.0148137 0 0 0 -0.009,-0.0062 1.0148125,1.0148137 0 0 0 -0.004,-0.0026 1.0148125,1.0148137 0 0 0 -0.0167,-0.01109 1.0148125,1.0148137 0 0 0 -0.009,-0.006 1.0148125,1.0148137 0 0 0 -0.0114,-0.0073 1.0148125,1.0148137 0 0 0 -0.002,-0.001 1.0148125,1.0148137 0 0 0 -0.0197,-0.01188 1.0148125,1.0148137 0 0 0 -0.007,-0.0042 1.0148125,1.0148137 0 0 0 -0.0143,-0.0081 1.0148125,1.0148137 0 0 0 -0.006,-0.0031 1.0148125,1.0148137 0 0 0 -0.0157,-0.0084 1.0148125,1.0148137 0 0 0 -0.005,-0.0026 1.0148125,1.0148137 0 0 0 -0.004,-0.0021 1.0148125,1.0148137 0 0 0 -0.0127,-0.0065 1.0148125,1.0148137 0 0 0 -0.004,-0.0021 1.0148125,1.0148137 0 0 0 -0.009,-0.0042 1.0148125,1.0148137 0 0 0 -0.01,-0.0047 1.0148125,1.0148137 0 0 0 -0.002,-0.001 1.0148125,1.0148137 0 0 0 -0.0203,-0.0092 1.0148125,1.0148137 0 0 0 -0.001,-2.72e-4 1.0148125,1.0148137 0 0 0 -0.006,-0.0026 1.0148125,1.0148137 0 0 0 -0.008,-0.0037 1.0148125,1.0148137 0 0 0 -0.3904,-0.07813 1.0148125,1.0148137 0 0 0 -0.39014,0.07894 v -0.07894 h -0.62456 v 1.014958 1.48297 h 0.62456 v -1.48297 a 0.39038302,0.39038348 0 0 1 0.002,-0.04081 0.39038302,0.39038348 0 0 1 0.006,-0.04029 0.39038302,0.39038348 0 0 1 0.0106,-0.03945 0.39038302,0.39038348 0 0 1 0.0146,-0.03814 0.39038302,0.39038348 0 0 1 0.0184,-0.03652 0.39038302,0.39038348 0 0 1 0.0224,-0.03432 0.39038302,0.39038348 0 0 1 0.0257,-0.03165 0.39038302,0.39038348 0 0 1 0.0289,-0.02893 0.39038302,0.39038348 0 0 1 0.0317,-0.02569 0.39038302,0.39038348 0 0 1 0.0343,-0.02245 0.39038302,0.39038348 0 0 1 0.0365,-0.01836 0.39038302,0.39038348 0 0 1 0.0381,-0.0146 0.39038302,0.39038348 0 0 1 0.0394,-0.01057 0.39038302,0.39038348 0 0 1 0.0403,-0.0065 0.39038302,0.39038348 0 0 1 0.0408,-0.0021 0.39038302,0.39038348 0 0 1 0.0143,2.67e-4 0.39038302,0.39038348 0 0 1 0.0141,10e-4 0.39038302,0.39038348 0 0 1 0.0143,0.0016 0.39038302,0.39038348 0 0 1 0.0141,0.0016 0.39038302,0.39038348 0 0 1 0.0141,0.0026 0.39038302,0.39038348 0 0 1 0.0141,0.0031 0.39038302,0.39038348 0 0 1 0.0138,0.0031 0.39038302,0.39038348 0 0 1 0.0138,0.0037 0.39038302,0.39038348 0 0 1 0.0135,0.0047 0.39038302,0.39038348 0 0 1 0.0135,0.0047 0.39038302,0.39038348 0 0 1 0.013,0.0052 0.39038302,0.39038348 0 0 1 0.0132,0.0062 0.39038302,0.39038348 0 0 1 0.0127,0.0062 0.39038302,0.39038348 0 0 1 0.0125,0.0067 0.39038302,0.39038348 0 0 1 0.0125,0.0073 0.39038302,0.39038348 0 0 1 0.0119,0.0076 0.39038302,0.39038348 0 0 1 0.0119,0.0081 0.39038302,0.39038348 0 0 1 0.0113,0.0084 0.39038302,0.39038348 0 0 1 0.0111,0.0089 0.39038302,0.39038348 0 0 1 0.0108,0.0095 0.39038302,0.39038348 0 0 1 0.0105,0.0097 0.39038302,0.39038348 0 0 1 0.01,0.01 0.39038302,0.39038348 0 0 1 0.01,0.01057 0.39038302,0.39038348 0 0 1 0.009,0.01083 0.39038302,0.39038348 0 0 1 0.009,0.01109 0.39038302,0.39038348 0 0 1 0.009,0.01135 0.39038302,0.39038348 0 0 1 0.008,0.01188 0.39038302,0.39038348 0 0 1 0.008,0.01188 0.39038302,0.39038348 0 0 1 0.007,0.01245 0.39038302,0.39038348 0 0 1 0.007,0.01245 0.39038302,0.39038348 0 0 1 0.006,0.01271 0.39038302,0.39038348 0 0 1 0.006,0.01297 0.39038302,0.39038348 0 0 1 0.005,0.01324 0.39038302,0.39038348 0 0 1 0.005,0.0135 0.39038302,0.39038348 0 0 1 0.004,0.0135 0.39038302,0.39038348 0 0 1 0.004,0.01376 0.39038302,0.39038348 0 0 1 0.004,0.01381 0.39038302,0.39038348 0 0 1 0.003,0.01407 0.39038302,0.39038348 0 0 1 0.003,0.01407 0.39038302,0.39038348 0 0 1 0.002,0.01407 0.39038302,0.39038348 0 0 1 0.002,0.01434 0.39038302,0.39038348 0 0 1 0.001,0.01407 0.39038302,0.39038348 0 0 1 2.8e-4,0.01434 v 1.482969 h 0.62455 v -1.482969 a 1.0148125,1.0148137 0 0 0 0,-2.67e-4 1.0148125,1.0148137 0 0 0 0,-2.72e-4 1.0148125,1.0148137 0 0 0 0,-2.72e-4 1.0148125,1.0148137 0 0 0 0,-2.67e-4 1.0148125,1.0148137 0 0 0 0,-2.72e-4 1.0148125,1.0148137 0 0 0 0,-2.72e-4 1.0148125,1.0148137 0 0 0 0,-2.67e-4 1.0148125,1.0148137 0 0 0 0,-2.72e-4 1.0148125,1.0148137 0 0 0 0,-2.72e-4 0.39038302,0.39038348 0 0 1 0.002,-0.0384 0.39038302,0.39038348 0 0 1 0.006,-0.04028 0.39038302,0.39038348 0 0 1 0.0106,-0.03945 0.39038302,0.39038348 0 0 1 0.0146,-0.03814 0.39038302,0.39038348 0 0 1 0.0184,-0.03652 0.39038302,0.39038348 0 0 1 0.0224,-0.03432 0.39038302,0.39038348 0 0 1 0.0257,-0.03165 0.39038302,0.39038348 0 0 1 0.0289,-0.02893 0.39038302,0.39038348 0 0 1 0.0317,-0.02569 0.39038302,0.39038348 0 0 1 0.0343,-0.02245 0.39038302,0.39038348 0 0 1 0.0365,-0.01836 0.39038302,0.39038348 0 0 1 0.0381,-0.0146 0.39038302,0.39038348 0 0 1 0.0395,-0.01057 0.39038302,0.39038348 0 0 1 0.0403,-0.0065 0.39038302,0.39038348 0 0 1 0.0408,-0.0021 0.39038302,0.39038348 0 0 1 0.0143,2.67e-4 0.39038302,0.39038348 0 0 1 0.0141,0.001 0.39038302,0.39038348 0 0 1 0.0146,0.0016 0.39038302,0.39038348 0 0 1 0.0141,0.0016 0.39038302,0.39038348 0 0 1 0.0141,0.0026 0.39038302,0.39038348 0 0 1 0.0141,0.0031 0.39038302,0.39038348 0 0 1 0.0138,0.0031 0.39038302,0.39038348 0 0 1 0.0138,0.0037 0.39038302,0.39038348 0 0 1 0.0135,0.0047 0.39038302,0.39038348 0 0 1 0.0135,0.0047 0.39038302,0.39038348 0 0 1 0.013,0.0054 0.39038302,0.39038348 0 0 1 0.0132,0.006 0.39038302,0.39038348 0 0 1 0.0127,0.0062 0.39038302,0.39038348 0 0 1 0.0125,0.0067 0.39038302,0.39038348 0 0 1 0.0125,0.0073 0.39038302,0.39038348 0 0 1 0.0119,0.0076 0.39038302,0.39038348 0 0 1 0.0119,0.0081 0.39038302,0.39038348 0 0 1 0.0114,0.0084 0.39038302,0.39038348 0 0 1 0.0111,0.0089 0.39038302,0.39038348 0 0 1 0.0108,0.0095 0.39038302,0.39038348 0 0 1 0.0105,0.0097 0.39038302,0.39038348 0 0 1 0.01,0.01 0.39038302,0.39038348 0 0 1 0.01,0.01057 0.39038302,0.39038348 0 0 1 0.009,0.01083 0.39038302,0.39038348 0 0 1 0.009,0.01109 0.39038302,0.39038348 0 0 1 0.009,0.01135 0.39038302,0.39038348 0 0 1 0.008,0.01188 0.39038302,0.39038348 0 0 1 0.008,0.01188 0.39038302,0.39038348 0 0 1 0.007,0.01245 0.39038302,0.39038348 0 0 1 0.007,0.01245 0.39038302,0.39038348 0 0 1 0.006,0.01271 0.39038302,0.39038348 0 0 1 0.006,0.01297 0.39038302,0.39038348 0 0 1 0.005,0.01324 0.39038302,0.39038348 0 0 1 0.005,0.0135 0.39038302,0.39038348 0 0 1 0.004,0.0135 0.39038302,0.39038348 0 0 1 0.004,0.01381 0.39038302,0.39038348 0 0 1 0.004,0.01381 0.39038302,0.39038348 0 0 1 0.003,0.01407 0.39038302,0.39038348 0 0 1 0.003,0.01407 0.39038302,0.39038348 0 0 1 0.002,0.01407 0.39038302,0.39038348 0 0 1 0.002,0.01434 0.39038302,0.39038348 0 0 1 0.001,0.01407 0.39038302,0.39038348 0 0 1 2.7e-4,0.01434 v 1.48297 h 0.62455 v -1.48297 a 1.0148125,1.0148137 0 0 0 0,-2.67e-4 1.0148125,1.0148137 0 0 0 0,-2.72e-4 1.0148125,1.0148137 0 0 0 0,-2.72e-4 1.0148125,1.0148137 0 0 0 0,-2.67e-4 1.0148125,1.0148137 0 0 0 0,-2.72e-4 1.0148125,1.0148137 0 0 0 0,-2.72e-4 1.0148125,1.0148137 0 0 0 0,-2.67e-4 1.0148125,1.0148137 0 0 0 0,-2.72e-4 1.0148125,1.0148137 0 0 0 0,-2.72e-4 1.0148125,1.0148137 0 0 0 0,-2.67e-4 1.0148125,1.0148137 0 0 0 0,-2.72e-4 1.0148125,1.0148137 0 0 0 0,-2.72e-4 1.0148125,1.0148137 0 0 0 0,-2.66e-4 1.0148125,1.0148137 0 0 0 0,-2.73e-4 1.0148125,1.0148137 0 0 0 0,-2.72e-4 1.0148125,1.0148137 0 0 0 0,-2.66e-4 1.0148125,1.0148137 0 0 0 0,-2.72e-4 1.0148125,1.0148137 0 0 0 0,-2.73e-4 1.0148125,1.0148137 0 0 0 0,-2.66e-4 1.0148125,1.0148137 0 0 0 0,-2.72e-4 1.0148125,1.0148137 0 0 0 0,-2.72e-4 1.0148125,1.0148137 0 0 0 0,-2.73e-4 1.0148125,1.0148137 0 0 0 0,-2.66e-4 1.0148125,1.0148137 0 0 0 0,-2.72e-4 1.0148125,1.0148137 0 0 0 0,-2.72e-4 1.0148125,1.0148137 0 0 0 0,-2.67e-4 1.0148125,1.0148137 0 0 0 0,-2.72e-4 1.0148125,1.0148137 0 0 0 0,-2.72e-4 1.0148125,1.0148137 0 0 0 0,-2.67e-4 1.0148125,1.0148137 0 0 0 0,-2.72e-4 1.0148125,1.0148137 0 0 0 0,-2.72e-4 1.0148125,1.0148137 0 0 0 0,-2.67e-4 1.0148125,1.0148137 0 0 0 0,-2.72e-4 1.0148125,1.0148137 0 0 0 0,-2.72e-4 1.0148125,1.0148137 0 0 0 0,-2.67e-4 1.0148125,1.0148137 0 0 0 0,-2.72e-4 1.0148125,1.0148137 0 0 0 0,-2.72e-4 1.0148125,1.0148137 0 0 0 0,-2.67e-4 1.0148125,1.0148137 0 0 0 0,-2.72e-4 1.0148125,1.0148137 0 0 0 0,-2.72e-4 1.0148125,1.0148137 0 0 0 0,-2.67e-4 1.0148125,1.0148137 0 0 0 0,-2.72e-4 1.0148125,1.0148137 0 0 0 0,-2.72e-4 1.0148125,1.0148137 0 0 0 0,-2.67e-4 1.0148125,1.0148137 0 0 0 0,-2.72e-4 1.0148125,1.0148137 0 0 0 0,-2.72e-4 1.0148125,1.0148137 0 0 0 0,-2.67e-4 1.0148125,1.0148137 0 0 0 0,-2.72e-4 1.0148125,1.0148137 0 0 0 0,-2.72e-4 1.0148125,1.0148137 0 0 0 0,-2.67e-4 1.0148125,1.0148137 0 0 0 0,-2.72e-4 1.0148125,1.0148137 0 0 0 0,-2.72e-4 1.0148125,1.0148137 0 0 0 0,-2.67e-4 1.0148125,1.0148137 0 0 0 0,-2.72e-4 1.0148125,1.0148137 0 0 0 0,-2.72e-4 1.0148125,1.0148137 0 0 0 0,-2.72e-4 1.0148125,1.0148137 0 0 0 0,-2.67e-4 1.0148125,1.0148137 0 0 0 0,-2.72e-4 1.0148125,1.0148137 0 0 0 0,-2.72e-4 1.0148125,1.0148137 0 0 0 0,-2.67e-4 1.0148125,1.0148137 0 0 0 0,-2.72e-4 1.0148125,1.0148137 0 0 0 0,-2.72e-4 1.0148125,1.0148137 0 0 0 0,-2.67e-4 1.0148125,1.0148137 0 0 0 0,-2.72e-4 1.0148125,1.0148137 0 0 0 0,-2.72e-4 1.0148125,1.0148137 0 0 0 -2.8e-4,-2.67e-4 1.0148125,1.0148137 0 0 0 0,-2.72e-4 1.0148125,1.0148137 0 0 0 0,-2.72e-4 1.0148125,1.0148137 0 0 0 0,-2.67e-4 1.0148125,1.0148137 0 0 0 0,-2.72e-4 1.0148125,1.0148137 0 0 0 0,-2.72e-4 1.0148125,1.0148137 0 0 0 0,-2.67e-4 1.0148125,1.0148137 0 0 0 0,-2.72e-4 1.0148125,1.0148137 0 0 0 0,-2.72e-4 1.0148125,1.0148137 0 0 0 0,-2.67e-4 1.0148125,1.0148137 0 0 0 0,-2.72e-4 1.0148125,1.0148137 0 0 0 0,-2.72e-4 1.0148125,1.0148137 0 0 0 0,-2.67e-4 1.0148125,1.0148137 0 0 0 0,-2.72e-4 1.0148125,1.0148137 0 0 0 0,-2.72e-4 1.0148125,1.0148137 0 0 0 0,-2.66e-4 1.0148125,1.0148137 0 0 0 0,-2.73e-4 1.0148125,1.0148137 0 0 0 0,-2.72e-4 1.0148125,1.0148137 0 0 0 0,-2.66e-4 1.0148125,1.0148137 0 0 0 0,-2.72e-4 1.0148125,1.0148137 0 0 0 0,-2.73e-4 1.0148125,1.0148137 0 0 0 0,-2.66e-4 1.0148125,1.0148137 0 0 0 0,-2.72e-4 1.0148125,1.0148137 0 0 0 0,-2.72e-4 1.0148125,1.0148137 0 0 0 0,-2.73e-4 1.0148125,1.0148137 0 0 0 0,-2.66e-4 1.0148125,1.0148137 0 0 0 -0.001,-0.02433 1.0148125,1.0148137 0 0 0 -0.002,-0.0203 1.0148125,1.0148137 0 0 0 -2.7e-4,-0.0042 1.0148125,1.0148137 0 0 0 -0.002,-0.02433 1.0148125,1.0148137 0 0 0 -0.002,-0.01732 1.0148125,1.0148137 0 0 0 -0.001,-0.0073 1.0148125,1.0148137 0 0 0 -0.002,-0.0157 1.0148125,1.0148137 0 0 0 -0.001,-0.0084 1.0148125,1.0148137 0 0 0 -5.2e-4,-0.0042 1.0148125,1.0148137 0 0 0 -0.0127,-0.06841 1.0148125,1.0148137 0 0 0 -0.003,-0.01 1.0148125,1.0148137 0 0 0 -0.003,-0.01381 1.0148125,1.0148137 0 0 0 -0.002,-0.0086 1.0148125,1.0148137 0 0 0 -0.0181,-0.06218 1.0148125,1.0148137 0 0 0 -0.002,-0.0042 1.0148125,1.0148137 0 0 0 -0.006,-0.01894 1.0148125,1.0148137 0 0 0 -0.001,-0.0031 1.0148125,1.0148137 0 0 0 -0.007,-0.01999 1.0148125,1.0148137 0 0 0 -5.2e-4,-0.0016 1.0148125,1.0148137 0 0 0 -0.008,-0.02135 1.0148125,1.0148137 0 0 0 -0.009,-0.02245 1.0148125,1.0148137 0 0 0 -0.01,-0.02245 1.0148125,1.0148137 0 0 0 -0.009,-0.01868 1.0148125,1.0148137 0 0 0 -0.002,-0.0037 1.0148125,1.0148137 0 0 0 -0.006,-0.01271 1.0148125,1.0148137 0 0 0 -0.005,-0.0092 1.0148125,1.0148137 0 0 0 -0.008,-0.0157 1.0148125,1.0148137 0 0 0 -0.003,-0.0057 1.0148125,1.0148137 0 0 0 -0.008,-0.01434 1.0148125,1.0148137 0 0 0 -0.004,-0.007 1.0148125,1.0148137 0 0 0 -10e-4,-0.0016 1.0148125,1.0148137 0 0 0 -0.0116,-0.01972 1.0148125,1.0148137 0 0 0 -0.008,-0.01135 1.0148125,1.0148137 0 0 0 -0.0195,-0.02972 1.0148125,1.0148137 0 0 0 -0.006,-0.0086 1.0148125,1.0148137 0 0 0 -0.008,-0.01135 1.0148125,1.0148137 0 0 0 -0.005,-0.0073 1.0148125,1.0148137 0 0 0 -0.009,-0.01219 1.0148125,1.0148137 0 0 0 -0.005,-0.0062 1.0148125,1.0148137 0 0 0 -0.0103,-0.01324 1.0148125,1.0148137 0 0 0 -0.004,-0.0047 1.0148125,1.0148137 0 0 0 -0.0116,-0.01407 1.0148125,1.0148137 0 0 0 -0.016,-0.01894 1.0148125,1.0148137 0 0 0 -0.003,-0.0026 1.0148125,1.0148137 0 0 0 -0.0141,-0.01569 1.0148125,1.0148137 0 0 0 -0.002,-0.0016 1.0148125,1.0148137 0 0 0 -0.0154,-0.01622 1.0148125,1.0148137 0 0 0 -5.2e-4,-5.23e-4 1.0148125,1.0148137 0 0 0 -0.0171,-0.01706 1.0148125,1.0148137 0 0 0 -0.0162,-0.01538 1.0148125,1.0148137 0 0 0 -0.002,-0.0016 1.0148125,1.0148137 0 0 0 -0.0181,-0.01648 1.0148125,1.0148137 0 0 0 -0.0149,-0.01271 1.0148125,1.0148137 0 0 0 -0.004,-0.0031 1.0148125,1.0148137 0 0 0 -0.0141,-0.01161 1.0148125,1.0148137 0 0 0 -0.005,-0.0042 1.0148125,1.0148137 0 0 0 -0.0132,-0.01025 1.0148125,1.0148137 0 0 0 -0.006,-0.0047 1.0148125,1.0148137 0 0 0 -0.0121,-0.0092 1.0148125,1.0148137 0 0 0 -0.007,-0.0054 1.0148125,1.0148137 0 0 0 -0.0113,-0.0081 1.0148125,1.0148137 0 0 0 -0.009,-0.0062 1.0148125,1.0148137 0 0 0 -0.004,-0.0026 1.0148125,1.0148137 0 0 0 -0.0167,-0.01109 1.0148125,1.0148137 0 0 0 -0.009,-0.006 1.0148125,1.0148137 0 0 0 -0.0113,-0.0073 1.0148125,1.0148137 0 0 0 -0.002,-0.001 1.0148125,1.0148137 0 0 0 -0.0197,-0.01188 1.0148125,1.0148137 0 0 0 -0.007,-0.0042 1.0148125,1.0148137 0 0 0 -0.0143,-0.0081 1.0148125,1.0148137 0 0 0 -0.006,-0.0031 1.0148125,1.0148137 0 0 0 -0.0157,-0.0084 1.0148125,1.0148137 0 0 0 -0.005,-0.0026 1.0148125,1.0148137 0 0 0 -0.004,-0.0021 1.0148125,1.0148137 0 0 0 -0.0127,-0.0065 1.0148125,1.0148137 0 0 0 -0.004,-0.0021 1.0148125,1.0148137 0 0 0 -0.009,-0.0042 1.0148125,1.0148137 0 0 0 -0.01,-0.0047 1.0148125,1.0148137 0 0 0 -0.002,-10e-4 1.0148125,1.0148137 0 0 0 -0.0203,-0.0092 1.0148125,1.0148137 0 0 0 -0.001,-2.72e-4 1.0148125,1.0148137 0 0 0 -0.006,-0.0026 1.0148125,1.0148137 0 0 0 -0.008,-0.0037 1.0148125,1.0148137 0 0 0 -0.39041,-0.07814 z m 2.5793,2.72e-4 a 1.2489227,1.2489227 0 0 0 -1.24882,1.249098 1.2489227,1.2489227 0 0 0 1.24882,1.24883 1.2489227,1.2489227 0 0 0 1.24883,-1.24883 1.2489227,1.2489227 0 0 0 -1.24883,-1.249098 z m 4.37103,0 v 1.249098 a 1.2489227,1.2489227 0 0 0 1.24883,1.24883 1.2489227,1.2489227 0 0 0 1.24883,-1.24883 v -1.248826 h -0.62455 v 1.248826 h 2.7e-4 a 0.62446164,0.62446164 0 0 1 -0.62455,0.624279 0.62446164,0.62446164 0 0 1 -0.62455,-0.624279 h 2.8e-4 v -1.249098 z m 4.05876,0 a 1.2489227,1.2489227 0 0 0 -1.24883,1.249098 1.2489227,1.2489227 0 0 0 1.24883,1.24883 1.2489227,1.2489227 0 0 0 0.88248,-0.366622 l -0.44151,-0.441507 a 0.62446164,0.62446164 0 0 1 -0.44097,0.183578 0.62446164,0.62446164 0 0 1 -0.62455,-0.624279 0.62446164,0.62446164 0 0 1 0.62455,-0.624547 0.62446164,0.62446164 0 0 1 0.44151,0.182768 l 0.44151,-0.441241 a 1.2489227,1.2489227 0 0 0 -0.88302,-0.366078 z m 4.00522,0 a 1.2489227,1.2489227 0 0 0 -1.24882,1.249098 1.2489227,1.2489227 0 0 0 1.24882,1.24883 1.2489227,1.2489227 0 0 0 1.24883,-1.24883 1.2489227,1.2489227 0 0 0 -1.24883,-1.249098 z m 2.80993,0 a 1.2489227,1.2489227 0 0 0 -1.24882,1.248825 v 1.249103 h 0.62455 v -1.249103 h -2.7e-4 a 0.62446164,0.62446164 0 0 1 0.62454,-0.624274 z m -15.24494,0.624551 a 0.62446164,0.62446164 0 0 1 0.62455,0.624547 0.62446164,0.62446164 0 0 1 -0.62455,0.624279 0.62446164,0.62446164 0 0 1 -0.62454,-0.624279 0.62446164,0.62446164 0 0 1 0.62454,-0.624547 z m 2.80993,0 a 0.62446164,0.62446164 0 0 1 0.62455,0.624547 0.62446164,0.62446164 0 0 1 -0.62455,0.624279 0.62446164,0.62446164 0 0 1 -0.62455,-0.624279 0.62446164,0.62446164 0 0 1 0.62455,-0.624547 z m 9.62508,0 a 0.62446164,0.62446164 0 0 1 0.62456,0.624547 0.62446164,0.62446164 0 0 1 -0.62456,0.624279 0.62446164,0.62446164 0 0 1 -0.62454,-0.624279 0.62446164,0.62446164 0 0 1 0.62454,-0.624547 z"
       id="path5"
       style="stroke-width:0.523193;fill:#000000" /><text
       xml:space="preserve"
       style="font-size:14.1111px;line-height:17.6389px;font-family:Cantarell;-inkscape-font-specification:Cantarell;text-align:center;text-anchor:middle;fill:#000000;stroke:#000000;stroke-width:0.352777;paint-order:stroke fill markers"
       x="169.48419"
       y="72.458488"
       id="text6"><tspan
         sodipodi:role="line"
         id="tspan6"
         style="font-style:normal;font-variant:normal;font-weight:bold;font-stretch:normal;font-size:14.1111px;line-height:17.6389px;font-family:Kanit;-inkscape-font-specification:'Kanit Bold';fill:#000000;stroke:none;stroke-width:0.352778"
         x="169.48419"
         y="72.458488">Luminar</tspan></text></g></svg>
